<svg xmlns="http://www.w3.org/2000/svg"  width="100" height="100.2" viewBox="0 0 100 100">
 <path fill="#02a146" d="M50.00006 5c-.46473 0-.92956.0783-1.28566.2349L5.6436 24.17546c-.7122.31319-.7122.81743 0 1.13062l43.0708 18.94056c.7122.31319 1.859.31319 2.5712 0l43.0708-18.94056c.7122-.31319.7122-.81743 0-1.13062L51.2856 5.2349C50.9295 5.07831 50.46478 5 50.00006 5Zm32.75417 27.65522-2.10656.92633v9.51976c-.85679.40641-1.40332 1.26951-1.40436 2.21781.00067.82498.41523 1.59458 1.10374 2.04906l-1.17396 4.79724h5.05573l-1.17386-4.79691c.68857-.45457 1.10309-1.22432 1.10364-2.04939-.001-.94807-.54779-1.81084-1.40437-2.21715zm-58.68827 2.9992V46.5227c0 9.35558 11.56664 16.88722 25.9341 16.88722 14.36745 0 25.93398-7.53164 25.93398-16.88722V35.65442L51.2856 46.49374c-.7122.31319-1.87126.33971-2.5712 0zm-9.25435 27.23029c-.80102 0-1.49256 2.10617-1.83731 5.2022 4.85044.74909 14.2622 2.14577 20.27086 2.67148-9.04279-3.3655-18.43355-7.87368-18.43355-7.87368zm-4.96522 5.83405c-1.14731 0-2.071 4.31824-2.071 9.68214 0 5.36391.92369 9.68214 2.071 9.68214 0 0 20.83405-3.37048 27.10916-3.37048h4.04403v-1.4069l-1.82524-1.0547c-.63832-.36856-.85501-1.18002-.48648-1.81833l1.05328-1.82513-1.05328-1.82382c-.36853-.63837-.15184-1.44976.48648-1.81833l1.82524-1.0547v-1.8214h-4.04403c-6.27511 0-27.10916-3.37049-27.10916-3.37049zm75.30119 0s-20.83405 3.37049-27.10916 3.37049h-.7713v1.8214l1.82524 1.0547c.63832.36857.85502 1.17996.48648 1.81833l-1.05327 1.82382 1.05327 1.82513c.36854.63831.15184 1.44977-.48648 1.81833l-1.82524 1.0547v1.4069h.7713c6.27511 0 27.10916 3.37048 27.10916 3.37048 1.14731 0 2.07101-4.31823 2.07101-9.68214 0-5.3639-.9237-9.68214-2.07101-9.68214zm-33.72417.23183c-.2137-.005-.43154.0473-.63098.16249l-1.65902.95739-1.65903-.95739c-.19944-.1151-.41743-.16698-.63119-.16238-.4081.009-.80054.2251-1.02037.60586l-.95859 1.65913h-1.91477c-.66995 0-1.20929.53924-1.20929 1.20918v1.91356l-1.65902.9586c-.5802.33497-.77715 1.07253-.44216 1.65276l.95739 1.65771-.95739 1.65902c-.33499.58017-.13804 1.3178.44216 1.65277l1.65902.95859v1.91356c0 .66994.53934 1.2093 1.20929 1.2093h1.91477l.95859 1.65902c.33499.58017 1.07136.77844 1.65156.44347l1.65903-.95738 1.65902.95738c.5802.33497 1.31647.1367 1.65145-.44347l.95859-1.65902h1.91477c.66996 0 1.20929-.53936 1.20929-1.2093v-1.91356l1.65902-.95859c.58021-.33497.77715-1.0726.44216-1.65277l-.95727-1.65902.95727-1.65771c.33499-.58023.13805-1.31779-.44216-1.65276l-1.65902-.9586v-1.91356c0-.66994-.53933-1.20918-1.20929-1.20918h-1.91477l-.95859-1.65913c-.21983-.38078-.61252-.59696-1.02047-.60597Zm-2.29 2.7925c3.79146.00001 6.86506 3.0736 6.86506 6.86507 0 3.79146-3.0736 6.86506-6.86506 6.86506-3.79147 0-6.86506-3.0736-6.86507-6.86506.00001-3.79147 3.0736-6.86506 6.86507-6.86507zm0 1.4487c-2.99141-.00004-5.41646 2.42496-5.41648 5.41637-.00004 2.99145 2.42502 5.41651 5.41648 5.41647 2.99141-.00002 5.4164-2.42506 5.41636-5.41647-.00002-2.99137-2.425-5.41635-5.41636-5.41637zm7.85294 13.03781c-.24307.31167-.622.51172-1.04965.51172h-2.10656l-1.0547 1.82513c-.31607.54744-.95676.78542-1.53548.6097l2.1229 3.67692 1.39011-4.04349 4.19489.8175zm-15.56337.1558-3.11243 5.39091 4.19676-.81793L43.89675 95l3.44345-5.96407-.032.0184c-.63832.36856-1.44836.15041-1.8169-.48791l-1.0547-1.82513h-2.10656c-.3513 0-.66969-.13502-.90702-.35592z"/>
</svg>